<svg width="22" height="18" viewBox="0 0 22 18" fill="none" xmlns="http://www.w3.org/2000/svg">
    <path fill-rule="evenodd" clip-rule="evenodd" d="M3.2079 5.04568C3.20809 4.17573 3.43315 3.32059 3.86124 2.56326C4.28934 1.80594 4.90594 1.17213 5.6512 0.723351C6.39646 0.274573 7.24507 0.0260644 8.11469 0.00194104C8.98431 -0.0221824 9.84539 0.178899 10.6144 0.585671C11.3834 0.992443 12.0342 1.59109 12.5036 2.32352C12.973 3.05596 13.2451 3.8973 13.2935 4.7659C13.342 5.6345 13.165 6.50087 12.7799 7.28093C12.3947 8.06098 11.8145 8.72824 11.0955 9.21794C12.6439 9.78587 13.987 10.8042 14.9518 12.1418C15.9166 13.4795 16.459 15.0753 16.5092 16.7238C16.512 16.8142 16.4968 16.9042 16.4648 16.9887C16.4327 17.0733 16.3843 17.1507 16.3223 17.2165C16.1971 17.3494 16.0242 17.4272 15.8417 17.4326C15.6592 17.4381 15.482 17.3709 15.349 17.2457C15.2161 17.1205 15.1383 16.9476 15.1329 16.7651C15.0782 14.9771 14.3296 13.2807 13.0455 12.0353C11.7615 10.7899 10.043 10.0934 8.25417 10.0934C6.46538 10.0934 4.74688 10.7899 3.46283 12.0353C2.17879 13.2807 1.43013 14.9771 1.37548 16.7651C1.3663 16.9448 1.2871 17.1137 1.15486 17.2358C1.02262 17.3578 0.84785 17.4231 0.667999 17.4179C0.488147 17.4126 0.317516 17.3371 0.192659 17.2075C0.0678024 17.078 -0.00134876 16.9046 1.99371e-05 16.7247C0.0500755 15.076 0.59242 13.4801 1.55724 12.1422C2.52207 10.8044 3.86521 9.78593 5.41378 9.21794C4.73358 8.75526 4.17695 8.13315 3.79244 7.40589C3.40794 6.67863 3.20726 5.86832 3.2079 5.04568ZM8.25463 1.37533C7.2812 1.37533 6.34763 1.76202 5.6593 2.45035C4.97098 3.13867 4.58428 4.07224 4.58428 5.04568C4.58428 6.01911 4.97098 6.95268 5.6593 7.641C6.34763 8.32933 7.2812 8.71602 8.25463 8.71602C9.22807 8.71602 10.1616 8.32933 10.85 7.641C11.5383 6.95268 11.925 6.01911 11.925 5.04568C11.925 4.07224 11.5383 3.13867 10.85 2.45035C10.1616 1.76202 9.22807 1.37533 8.25463 1.37533Z" fill="white"/>
    <path d="M15.8613 5.04572C15.7255 5.04572 15.5934 5.05489 15.4631 5.07324C15.3721 5.08953 15.2788 5.08733 15.1887 5.06677C15.0986 5.04621 15.0135 5.00772 14.9386 4.95358C14.8637 4.89944 14.8005 4.83077 14.7527 4.75166C14.7049 4.67256 14.6736 4.58464 14.6605 4.49315C14.6474 4.40166 14.6529 4.30848 14.6766 4.21916C14.7004 4.12984 14.7418 4.04621 14.7986 3.97326C14.8553 3.90032 14.9262 3.83955 15.0069 3.79459C15.0877 3.74962 15.1766 3.72138 15.2685 3.71154C16.1811 3.5796 17.1117 3.75485 17.9138 4.20972C18.7159 4.6646 19.344 5.37326 19.6992 6.2242C20.0544 7.07513 20.1166 8.02002 19.8759 8.91017C19.6353 9.80031 19.1055 10.5852 18.37 11.1412C19.4512 11.6254 20.3693 12.4121 21.0134 13.4064C21.6575 14.4008 22.0001 15.5602 21.9999 16.7449C21.9999 16.9275 21.9274 17.1025 21.7984 17.2316C21.6693 17.3606 21.4943 17.4331 21.3117 17.4331C21.1292 17.4331 20.9542 17.3606 20.8251 17.2316C20.6961 17.1025 20.6236 16.9275 20.6236 16.7449C20.6235 15.7211 20.2935 14.7244 19.6827 13.9027C19.0719 13.081 18.2126 12.4779 17.2322 12.1827L16.7422 12.0359V10.498L17.1184 10.3062C17.676 10.0238 18.1222 9.56158 18.3849 8.99431C18.6476 8.42705 18.7115 7.78781 18.5662 7.1798C18.4209 6.57179 18.0749 6.03048 17.5841 5.64327C17.0934 5.25606 16.4864 5.04555 15.8613 5.04572Z" fill="white"/>
</svg>
