<svg width="14" height="16" viewBox="0 0 14 16" fill="none" xmlns="http://www.w3.org/2000/svg">
    <path d="M6.90621 8.97906C7.36418 8.97906 7.80339 8.79713 8.12723 8.4733C8.45106 8.14946 8.63299 7.71025 8.63299 7.25228C8.63299 6.79432 8.45106 6.3551 8.12723 6.03127C7.80339 5.70744 7.36418 5.52551 6.90621 5.52551C6.44825 5.52551 6.00904 5.70744 5.6852 6.03127C5.36137 6.3551 5.17944 6.79432 5.17944 7.25228C5.17944 7.71025 5.36137 8.14946 5.6852 8.4733C6.00904 8.79713 6.44825 8.97906 6.90621 8.97906Z" fill="white"/>
    <path fill-rule="evenodd" clip-rule="evenodd" d="M11.7902 2.02291C9.093 -0.674304 4.71944 -0.674304 2.02291 2.02291C-0.674304 4.72013 -0.674304 9.0937 2.02291 11.7909L2.04225 11.8103L5.75481 15.5228C6.06038 15.8284 6.4748 16 6.90691 16C7.33903 16 7.75345 15.8284 8.05901 15.5228L11.7909 11.7909C14.4881 9.0937 14.4881 4.72013 11.7909 2.02291H11.7902ZM2.75506 2.75506C3.85884 1.66725 5.34794 1.05997 6.89766 1.06565C8.44737 1.07133 9.93199 1.6895 11.0278 2.78537C12.1235 3.88123 12.7416 5.3659 12.7471 6.91562C12.7527 8.46533 12.1453 9.95439 11.0574 11.0581L7.32548 14.7907C7.21424 14.9018 7.06344 14.9642 6.90622 14.9642C6.749 14.9642 6.59821 14.9018 6.48696 14.7907L2.77233 11.076L2.77095 11.0746L2.75506 11.0581C1.65421 9.95706 1.03576 8.46387 1.03576 6.90691C1.03576 5.34996 1.65421 3.85607 2.75506 2.75506Z" fill="white"/>
</svg>